<svg width="156" height="29" viewBox="0 0 156 29" fill="none" xmlns="http://www.w3.org/2000/svg">
<g clip-path="url(#clip0_60_186)">
<path d="M30.952 23.2715L34.3766 18.0932L38.3262 9.8708L34.8259 6.40993V6.21276H41.3756L45.5261 17.9946L48.8521 23.2715V23.4687H41.2277V23.2715L44.8285 18.1658L44.5783 17.429H35.4777L35.1271 18.1658L38.4777 23.2715V23.4687H30.952V23.2715ZM44.3282 16.7424L43.7785 15.1218L38.8794 10.3118L35.8036 16.7424H44.3282Z" fill="#E41C40"/>
<path d="M49.9267 23.3701L52.9021 18.2402V13.9941L50.6014 11.3929V11.2701H55.8264L58.4512 19.5668L61.1008 11.2701H66.3011V11.3929L64.0004 14.0184V18.2402L67.0005 23.3701V23.4687H60.4754V23.3701L63.4261 18.2402V14.6808L58.6767 20.1791H58.2768L53.501 14.6808V18.2402L56.4518 23.3701V23.4687H49.9267V23.3701Z" fill="#E41C40"/>
<path d="M67.9007 20.1548C67.9007 17.5276 70.4515 16.5954 73.7511 16.5954C75.0758 16.5954 76.7265 16.7926 77.8011 17.0364V16.8894C77.8011 15.2204 75.4511 14.5337 73.6013 14.5337C71.9507 14.5337 70.1767 15.0492 68.852 15.8586L68.5261 15.5646C69.2765 12.6935 71.1262 10.9743 73.8762 10.9743C77.2761 10.9743 78.4018 13.5514 78.4018 16.0558V18.1416L81.3261 21.2843V21.4313L77.6003 23.7627L77.4999 23.6399L77.824 19.2226C76.9995 21.3085 75.1991 23.7627 72.0987 23.7627C69.7486 23.7627 67.8989 22.3877 67.8989 20.1548H67.9007ZM73.0764 20.1548C75.8263 20.1548 77.4012 19.271 77.8011 18.7556V17.5276C76.6754 17.2578 75.6255 17.1834 74.3518 17.1834C71.0258 17.1834 69.7011 17.7473 69.7011 18.6813C69.7011 19.5409 70.7757 20.1548 73.0764 20.1548Z" fill="#E41C40"/>
<path d="M80.4259 28.3288L83.5264 23.2474V16.6698L80.4013 13.6517V13.4805L84.3773 10.9519L84.5024 11.0989L84.1271 15.8604C84.8265 13.4303 87.0021 10.9519 90.2277 10.9519C93.152 10.9519 95.4034 13.0135 95.4034 16.9656C95.4034 20.9176 93.0534 23.7645 89.3028 23.7645C87.2787 23.7645 85.5523 22.9793 84.1271 21.6527V23.2232L87.2523 28.3288V28.5001H80.4277V28.3288H80.4259ZM89.701 20.1549C92.7257 20.1549 94.7762 19.0255 94.7762 17.3807C94.7762 15.9088 93.1503 14.5338 89.6763 14.5338C87.4003 14.5338 85.4519 15.1236 84.1254 16.4727V18.2645C85.0749 19.3437 86.9757 20.1549 89.701 20.1549Z" fill="#E41C40"/>
<path d="M105.075 23.3702L108.026 17.4793V14.1896L103.976 17.5519L102.801 23.467H96.1997V23.3685L99.0747 20.9384V17.2319L96.0992 11.341V11.2667H102.624V11.341L99.6736 17.2319V20.5216L103.699 17.2077L104.874 11.2684H111.5V11.3912L108.625 13.7728V17.4793L111.575 23.3702V23.4688H105.075V23.3702Z" fill="#E41C40"/>
<path d="M112.775 23.3459V18.0932H112.925C113.474 18.5844 113.975 18.8058 114.625 18.8058C115.9 18.8058 116.249 17.922 116.249 15.2965L114.024 11.3946V11.2718H125.749V11.3946L123.274 15.4193V18.2904L126.225 23.3719V23.4705H119.749V23.3719L122.725 18.2904V14.6583H116.825C116.825 22.047 115.925 23.6659 114.075 23.6659C113.675 23.6659 113.15 23.5673 112.775 23.3477V23.3459Z" fill="#E41C40"/>
<path d="M136.724 23.3702L139.675 17.4793V14.1896L135.625 17.5519L134.45 23.467H127.849V23.3685L130.724 20.9384V17.2319L127.749 11.341V11.2667H134.274V11.341L131.323 17.2319V20.5216L135.349 17.2077L136.524 11.2684H143.149V11.3912L140.274 13.7728V17.4793L143.225 23.3702V23.4688H136.724V23.3702Z" fill="#E41C40"/>
<path d="M143.75 17.308C143.75 13.6517 146.225 10.9501 149.924 10.9501C151.799 10.9501 153.599 11.6368 154.549 12.2265L153.948 15.7116H153.747C152.646 14.9748 150.997 14.5338 149.096 14.5338C146.997 14.5338 144.372 15.2706 144.372 17.3564C144.372 19.2953 147.122 20.1791 149.997 20.1791C152.297 20.1791 153.472 19.6637 154.846 18.9027L155.021 19.0497C154.395 21.5282 152.921 23.7628 149.872 23.7628C146.671 23.7628 143.746 21.2843 143.746 17.3063L143.75 17.308Z" fill="#E41C40"/>
<path d="M12.261 6.21277L8.46646 0.752517V0.5H16.7286V0.752517L12.9357 6.21277H12.261Z" fill="#E41C40"/>
<path d="M22.9471 23.4392H12.5975V23.1487L24.3089 9.83964H25.195L22.9471 23.4392Z" fill="#511824"/>
<path d="M19.9911 9.73932L12.5975 12.6433V12.0241L19.5771 2.5201H19.9911V9.73932Z" fill="#511824"/>
<path d="M5.20388 2.5201H5.61787L12.5975 12.0241V12.6433L5.20388 9.73932V2.5201Z" fill="#511824"/>
<path d="M0 9.83964H0.887867L12.5975 23.1487V23.4392H2.24785L0 9.83964Z" fill="#511824"/>
<path d="M13.2194 12.0241H11.9774V23.4393H13.2194V12.0241Z" fill="#511824"/>
</g>
<defs>
<clipPath id="clip0_60_186">
<rect width="155.024" height="28" fill="white" transform="translate(0 0.5)"/>
</clipPath>
</defs>
</svg>
