<svg width="64" height="62" viewBox="0 0 64 62" fill="none" xmlns="http://www.w3.org/2000/svg">
<path d="M48.1084 20.5839L49.6632 19.5355L50.6951 21.0658L49.1403 22.1142L48.1084 20.5839Z" fill="#FFAAAA"/>
<path d="M44.994 22.6273L46.5487 21.5789L47.5972 23.1337L46.0424 24.1821L44.994 22.6273Z" fill="#FFAAAA"/>
<path d="M54.8411 37.7157L46.2406 38.0094L53.3046 43.5153C54.9537 44.8006 55.5627 47.0539 54.7856 48.995L50.791 58.9739L40.0644 59.6895C37.9804 59.8285 36.0245 58.5539 35.3112 56.5894L32.3742 48.5007L29.3207 56.9203C28.608 58.8859 26.6522 60.1623 24.5669 60.0223L13.8419 59.3068L11.2132 52.7403L9.47198 53.4373L12.5394 61.0996L24.442 61.8937C24.5872 61.9034 24.7319 61.9082 24.876 61.9082C27.6244 61.9082 30.1376 60.169 31.0839 57.5598L32.3752 53.9989L33.5482 57.2294C34.545 59.9742 37.2782 61.7545 40.1891 61.5609L52.0936 60.7667L56.5269 49.6921C57.6126 46.9799 56.7616 43.8317 54.4576 42.0359L51.4702 39.7074L54.9051 39.5902C57.7075 39.4944 60.1489 37.6318 60.9802 34.9553L59.1892 34.3989C58.5942 36.3142 56.847 37.6472 54.8411 37.7157Z" fill="#511824"/>
<path d="M54.8374 15.4069C52.5939 13.5364 49.3365 13.3727 46.9165 15.0091L43.7788 17.1308L44.7287 13.8278C45.5357 11.0216 44.3732 7.97543 41.902 6.42005L31.8044 0.0654297L21.7083 6.41905C19.2359 7.97505 18.0737 11.0222 18.8822 13.8293L19.9305 17.4691L17.0826 15.5449C14.6631 13.9103 11.4069 14.0744 9.164 15.9442L0 23.5841L2.92287 35.1496C3.63862 37.9817 6.17762 40.0286 9.09713 40.1271L12.8827 40.2548L10.1729 42.3687C7.8705 44.1647 7.02038 47.3123 8.10563 50.0232L8.77188 51.6876L10.5131 50.9906L9.84688 49.3261C9.07013 47.3858 9.6785 45.1329 11.3265 43.8474L18.1116 38.5546L9.1605 38.2524C7.07087 38.1818 5.25375 36.7168 4.74137 34.6897L2.1075 24.2688L10.3649 17.3849C11.9701 16.0467 14.3009 15.9292 16.0325 17.0991L23.163 21.9167L20.6844 13.3103C20.1058 11.3012 20.9375 9.12018 22.707 8.00655L31.8043 2.28143L40.9029 8.00743C42.6717 9.12055 43.5039 11.3009 42.9261 13.3094L40.5477 21.5796L47.967 16.5628C49.6989 15.3918 52.0304 15.5087 53.6362 16.8476L61.8924 23.7303L60.5827 28.9118L62.4011 29.3714L64 23.0456L54.8374 15.4069Z" fill="#511824"/>
<path d="M32 39.4534L45.6222 51.6124L38.2679 34.8995L54.0412 25.7014L35.8737 27.5311L35.4417 25.5414L33.609 25.9394L34.396 29.5651L45.6334 28.4331L35.8769 34.1226L40.426 44.4603L32 36.9394L23.5741 44.4603L28.1231 34.1226L18.3666 28.4331L29.6039 29.5651L32 18.528L33.2025 24.0673L35.0352 23.6694L32 9.68726L28.1262 27.5311L9.95862 25.7014L25.7321 34.8995L18.3776 51.6124L32 39.4534Z" fill="#511824"/>
<path d="M59.6729 32.5325L60.1359 30.6995L61.9552 31.1591L61.4923 32.992L59.6729 32.5325Z" fill="#FFAAAA"/>
</svg>
