<svg width="64" height="65" viewBox="0 0 64 65" fill="none" xmlns="http://www.w3.org/2000/svg">
<path d="M58.4712 34.4414C58.8232 34.1422 58.9024 34.0759 59.8464 33.2799C58.8644 32.5081 58.7127 32.3977 58.209 31.9576C60.4869 29.8481 61.1584 28.2029 63.9424 24.3469C59.4656 22.3767 58.347 21.5536 55.8487 20.9123C56.0625 20.3029 56.1324 20.1432 56.6024 18.9727L54.453 18.5728C55.1786 15.9732 54.9945 14.6067 55.5026 9.69707C50.7151 10.2008 49.172 10.0142 46.4897 10.7901C46.4109 10.3433 46.4037 10.2933 46.1931 9.01219C45.0149 9.48407 44.8431 9.55994 44.214 9.77632C43.525 6.75269 42.434 5.33719 40.4891 1.00282C36.4026 3.99832 35.2725 4.45832 33.4827 6.27982C33.0025 5.72807 32.9382 5.65107 32.1334 4.71007L30.7437 6.33532C28.8559 4.40694 27.5131 3.83382 23.5824 0.986816C21.5271 5.60532 20.6979 6.61419 20.0237 9.33332C19.5827 9.17657 19.5186 9.15282 18.3837 8.74232C18.1589 9.90457 18.1245 10.0871 17.9822 10.7969C15.0264 9.88669 13.2874 10.1272 8.54537 9.64394C9.08 14.5204 8.92125 15.8582 9.61387 18.3533L7.57775 18.7312L8.2915 20.7486C5.67075 21.4218 4.5655 22.2713 0.0777451 24.2766C2.91962 28.1856 3.51137 29.5916 5.53037 31.5339L4.1535 32.6938C5.134 33.4644 5.28699 33.5759 5.79087 34.0159C3.51462 36.1243 2.8895 37.7041 0.0574951 41.6266C4.53437 43.5969 5.62487 44.4086 8.12587 45.0547C7.882 45.7788 7.85987 45.8346 7.44475 47.0096L9.54675 47.4007C8.81737 50.0126 8.99712 51.4464 8.49712 56.2764C13.284 55.7727 14.8296 55.9632 17.5325 55.1769C17.6005 55.6053 17.594 55.5947 17.7315 56.9914C18.9914 56.4868 19.1529 56.4149 19.7855 56.1968C20.4756 59.2273 21.5531 60.6086 23.5105 64.9707L24.4454 64.2853C26.9954 62.4159 28.6987 61.5443 30.5179 59.6926C30.9757 60.2211 31.0855 60.3507 31.8661 61.2633L33.2556 59.6382C35.143 61.5666 36.5227 62.1658 40.4174 64.9866C42.3782 60.5802 43.3052 59.3493 43.9767 56.6372L45.6681 57.2498C45.846 56.0112 45.8654 55.8276 45.9952 55.1697C48.9537 56.0852 50.6404 55.8387 55.4542 56.3294C54.9196 51.4529 55.0784 50.1152 54.3857 47.6201L56.4219 47.2422L55.7081 45.2248C58.3289 44.5516 59.4341 43.7021 63.9219 41.6968C61.0829 37.7916 60.4876 36.3818 58.4712 34.4414ZM51.3245 37.1168C50.2857 36.0689 49.3052 35.3571 48.1416 34.6678H48.1411C46.9735 33.9903 45.6266 33.4546 44.257 33.1179C46.8606 32.5039 49.2876 31.1862 51.215 29.3309C53.8395 30.3518 55.3156 31.9111 56.9081 33.3102C54.677 35.2146 53.4401 36.3039 51.3245 37.1168ZM32 43.2977C29.097 43.2977 26.4157 42.1296 24.4502 40.0086L23.0752 41.2828C23.4466 41.6836 23.8396 42.0551 24.2517 42.3973C23.1297 43.5324 22.1592 44.1651 21.0159 44.7893C16.5444 47.1379 12.9362 46.1246 9.932 45.5656C11.2116 41.7796 12.3841 38.6606 16.4469 36.1859C17.4122 35.5782 18.6652 35.0623 19.9345 34.7374C19.9945 35.1497 20.0752 35.5596 20.1784 35.9654L21.9955 35.5038C19.9766 27.5574 27.6732 20.5958 35.3532 23.2309L35.3525 23.2329C37.4345 23.9444 39.3614 25.3859 40.6644 27.3963C45.1015 34.2428 40.1654 43.2977 32 43.2977ZM7.09487 32.6656C9.19187 30.8971 10.3531 29.7596 12.6765 28.8578C13.7222 29.9126 14.7134 30.6289 15.8584 31.3058H15.8589C17.0261 31.9831 18.3721 32.5186 19.7411 32.8552C17.0567 33.4929 14.6325 34.8444 12.7714 36.6371C10.1622 35.6183 8.68637 34.0637 7.09487 32.6656ZM18.1857 19.8374C20.484 20.3958 22.6786 21.5889 24.459 23.4193C22.9316 24.6211 21.8875 25.9923 21.0517 27.6242V27.6299C20.9174 27.9048 20.7931 28.1852 20.68 28.4688H20.6574C20.4061 29.2224 20.1622 29.8907 19.9792 30.9794C18.555 30.6051 17.4982 30.1098 16.3779 29.4312C11.9267 26.6622 10.915 22.5431 10.0769 20.1742C13.114 19.6106 15.0985 19.0861 18.1857 19.8374ZM40.1569 23.9383L40.1591 23.9358C40.0307 23.8199 39.8684 23.6814 39.7454 23.5802C40.6489 22.6644 41.6936 21.8884 42.6665 21.3577C47.2404 18.7946 51.0451 19.8457 54.0409 20.4031C53.2356 22.7244 52.6616 25.1126 50.2965 27.5979C48.6101 29.3652 46.4236 30.6356 44.058 31.2392C43.6409 28.3464 42.2282 25.8054 40.1569 23.9383ZM61.0887 25.1262C59.6534 27.2369 58.7267 28.9634 56.8044 30.7021C55.6729 29.7043 54.3684 28.6704 52.5521 27.8594C53.9875 26.0549 54.6924 24.3048 55.2466 22.6936C57.334 23.2086 58.7311 24.0311 61.0887 25.1262ZM45.2377 14.4896L47.0946 14.2323C47.0222 13.7096 46.9306 13.1843 46.8311 12.6429C49.0722 11.9641 50.8321 11.9984 53.4146 11.7878C53.2065 14.3524 53.2336 16.0598 52.6042 18.2239C51.5056 18.0002 49.5517 17.6543 47.1787 17.9408C47.2421 17.3582 47.2692 16.7834 47.2585 16.2064L45.384 16.2414C45.3969 16.9242 45.3489 17.6054 45.2399 18.3087C42.6676 18.9812 40.2022 20.3871 38.2461 22.4348C39.0049 19.9204 39.1042 17.1904 38.4405 14.5199C40.6437 12.7506 42.7074 12.2699 44.7272 11.5824C44.9224 12.6478 45.1131 13.5894 45.2377 14.4896ZM39.7372 3.86407C40.8466 6.16144 41.8797 7.83657 42.4249 10.3657C41.0021 10.8427 39.4582 11.4456 37.8396 12.6191C37.0709 10.6506 36.0031 9.21832 34.7146 7.70182C36.1994 6.15994 37.6042 5.36307 39.7372 3.86407ZM32.1377 7.58994C34.1657 9.91894 35.6375 11.5266 36.4809 14.4484C37.1617 16.7711 37.1916 19.2701 36.5166 21.6641C33.7377 20.5552 30.6012 20.5038 27.7272 21.5804C27.4227 20.4733 27.2332 19.1734 27.2619 17.9331C27.332 12.7424 30.104 9.96807 32.1377 7.58994ZM24.3491 3.84082C26.4606 5.30069 27.9667 6.14207 29.52 7.76469C28.7442 8.64482 27.4792 10.1414 26.5521 12.3141C25.0329 11.2042 23.5689 10.5992 21.7991 9.96219C22.3344 7.68407 23.2437 6.17482 24.3491 3.84082ZM19.8045 11.2446C22.4561 12.1803 24.0791 12.7128 25.9031 14.1791C25.1962 16.7759 25.2017 19.6237 25.985 22.3041C24.1961 20.3986 21.9009 18.9444 19.2264 18.1758C18.8534 15.8043 19.2352 14.0816 19.8045 11.2446ZM17.6162 12.6469C17.2755 14.4522 17.0865 15.9577 17.2797 17.7516C14.677 17.3627 12.6565 17.7643 11.4655 18.0133C10.8646 15.9387 10.8776 14.3204 10.6474 11.7256C13.1959 11.9132 15.16 11.8553 17.6162 12.6469ZM2.93312 25.0396C5.24462 23.9446 6.7235 23.0602 8.92237 22.5221C9.28199 23.5964 9.90537 25.4202 11.3799 27.3672C9.3035 28.2848 8.0045 29.4298 6.9765 30.3233C5.2595 28.7156 4.40287 27.1649 2.93312 25.0396ZM2.91112 40.8477C4.351 38.7292 5.27675 37.0071 7.19612 35.2711C8.328 36.2687 9.63225 37.3024 11.4451 38.1128C10.1347 39.7966 9.34837 41.5933 8.73837 43.2762C6.65812 42.7607 5.25212 41.9366 2.91112 40.8477ZM10.585 54.1859C10.7916 51.6362 10.7637 49.9183 11.397 47.7447C13.226 48.1238 14.9329 48.2654 16.824 48.0353C16.5987 50.1419 16.8814 51.8711 17.1742 53.3291C14.926 54.0111 13.1552 53.9772 10.585 54.1859ZM18.7614 47.6652C20.3775 47.2407 21.4594 46.6964 22.729 45.9837V45.9766C23.8062 45.3272 24.8474 44.4847 25.7546 43.5372C24.9764 46.1189 24.91 48.8582 25.5567 51.4558C23.3751 53.2049 21.3089 53.6974 19.2986 54.3819C18.9501 52.5189 18.3352 50.4498 18.7614 47.6652ZM24.263 62.1097C23.1494 59.8033 22.119 58.1349 21.5746 55.6054C23.0027 55.1251 24.5515 54.5197 26.1664 53.3494C26.9529 55.3517 27.9359 56.6777 29.2885 58.2687C27.7994 59.8161 26.3852 60.6193 24.263 62.1097ZM31.8632 58.3824C29.8574 56.0709 28.6856 54.7784 27.7996 52.3753C26.8415 49.7919 26.7369 46.9672 27.4815 44.3168C30.2044 45.3993 33.3725 45.4853 36.2752 44.4022C36.5829 45.5237 36.7404 46.6793 36.7404 47.8508C36.7405 53.1259 33.9222 55.9743 31.8632 58.3824ZM39.6509 62.1331C37.5461 60.6788 36.0365 59.8359 34.479 58.2081C35.2201 57.3763 36.5032 55.8646 37.445 53.6547C39.1344 54.8852 40.6201 55.4554 42.2047 55.9939C41.6707 58.2802 40.7637 59.7832 39.6509 62.1331ZM44.1742 54.7162C41.6852 53.8159 40.0919 53.3859 38.0941 51.7907C38.7849 49.2637 38.8199 46.4243 38.015 43.6696C39.8817 45.6579 42.2171 47.0637 44.7739 47.8063C45.201 50.5877 44.5891 52.6447 44.1742 54.7162ZM46.381 53.3258C46.6792 51.8486 46.922 50.2037 46.7167 48.2277C47.3866 48.3246 48.0634 48.3751 48.7464 48.3758L48.7484 46.5011C45.1859 46.4972 41.8787 44.9551 39.5469 42.5604C41.0862 41.3453 42.1207 39.9651 42.9482 38.3494V38.3437C43.4721 37.2721 43.8282 36.1428 44.0191 34.9938C45.4482 35.3692 46.5056 35.8662 47.6221 36.5424H47.6222C51.744 39.1066 52.7847 42.5818 53.9231 45.7994C51.574 46.2356 51.227 46.3037 50.5417 46.3877L50.7702 48.2484C51.441 48.1661 52.0401 48.0557 52.5351 47.9622C53.1354 50.0358 53.1225 51.6538 53.3526 54.2478C50.8032 54.0604 48.8385 54.1183 46.381 53.3258ZM55.0777 43.4516C54.7199 42.3807 54.0995 40.5602 52.624 38.6113C54.3004 37.8779 55.5042 36.9554 57.0367 35.6626C58.7445 37.2653 59.5999 38.8128 61.0667 40.9341C58.7555 42.0291 57.2765 42.9134 55.0777 43.4516Z" fill="#511824"/>
<path d="M22.5637 37.145L20.8501 37.9051C21.1186 38.5104 21.4363 39.0945 21.8005 39.6514L23.3696 38.6254C23.0652 38.1599 22.7931 37.6624 22.5637 37.145Z" fill="#FFAAAA"/>
<path d="M47.3103 23.1124L48.9469 22.1976L49.8473 23.8084L48.2107 24.7232L47.3103 23.1124Z" fill="#FFAAAA"/>
<path d="M44.0363 24.8893L45.6728 23.9745L46.5877 25.6111L44.9511 26.5259L44.0363 24.8893Z" fill="#FFAAAA"/>
</svg>
