<svg width="64" height="60" viewBox="0 0 64 60" fill="none" xmlns="http://www.w3.org/2000/svg">
<path d="M24.9781 26.3527C24.7895 28.6583 25.593 30.8532 27.0327 32.4193L32.0099 37.8336L36.9869 32.4193C38.4254 30.8546 39.2302 28.6628 39.0416 26.3537C41.373 26.545 43.5636 25.7181 45.1076 24.2986L50.5219 19.3215L45.1076 14.3445C43.5534 12.9155 41.3585 12.1001 39.0414 12.291C39.2301 9.9857 38.4272 7.79058 36.9867 6.22358L32.01 0.809326L27.0329 6.22358C26.215 7.11333 25.6016 8.21395 25.2591 9.40758C24.9921 10.3422 24.8986 11.3198 24.9782 12.2908C22.6832 12.1018 20.482 12.901 18.9121 14.3443L13.4979 19.3215L18.9121 24.2985C20.4357 25.6995 22.619 26.5476 24.9781 26.3527ZM35.6057 31.1496L32.01 35.0612C28.1766 30.8912 27.5676 30.4777 27.0632 28.72C26.8077 27.826 26.7612 26.8793 26.9197 25.9535C28.5307 25.4175 29.3684 24.6615 30.5122 23.7657C30.6957 23.8278 30.8825 23.8778 31.0719 23.9163V28.6181H32.9481V23.9163C33.9045 23.7217 34.7566 23.2412 35.4191 22.5405C35.8972 23.151 36.6189 23.9736 36.9949 25.4477C37.5319 27.5466 36.949 29.6883 35.6057 31.1496ZM29.482 18.0845C30.7816 15.4236 34.8242 16.3502 34.8242 19.3213C34.8242 20.4322 34.1787 21.3935 33.2459 21.8498C30.8434 23.0265 28.3041 20.4711 29.482 18.0845ZM43.8381 15.7256L47.7497 19.3215L43.838 22.9173C42.5209 24.1282 40.613 24.7507 38.6427 24.4122C38.1104 22.8075 37.3615 21.9776 36.4547 20.8197C36.517 20.6362 36.567 20.4493 36.6055 20.2595H41.3066V18.3832H36.6056C36.4129 17.4313 35.9299 16.5743 35.2289 15.9122L35.7234 15.525C38.19 13.5968 41.6339 13.6993 43.8381 15.7256ZM27.0629 9.92395C27.5684 8.16245 28.1905 7.73658 32.01 3.58158C35.8209 7.7272 36.4514 8.1617 36.9566 9.92283C37.2121 10.8167 37.2585 11.7633 37.1002 12.689C35.4912 13.224 34.6521 13.981 33.5076 14.8771C33.3241 14.815 33.1375 14.7649 32.9481 14.7263V10.0247H31.0719V14.7263C30.8825 14.7648 30.6957 14.8148 30.5122 14.877C29.3572 13.9727 28.5281 13.2236 26.9196 12.6888C26.7612 11.7633 26.8077 10.817 27.0629 9.92395ZM20.1819 15.7255C22.3814 13.7035 25.8241 13.5923 28.2959 15.5247L28.791 15.9123C28.0871 16.5768 27.6071 17.4333 27.4145 18.3833H22.7134V20.2596H27.4145C27.6072 21.2115 28.0901 22.0682 28.7911 22.7305L28.2965 23.1177C26.6672 24.3915 24.5424 24.8216 22.6126 24.2685C20.8511 23.763 20.4251 23.141 16.2702 19.3213L20.1819 15.7255Z" fill="#511824"/>
<path d="M59.1375 37.9255C57.7751 36.6741 55.8389 35.9149 53.7489 36.0531C53.8851 33.9959 53.1509 32.0521 51.8763 30.6642L47.3494 25.7404L43.4241 30.0101L44.8054 31.2799L47.3494 28.5126L50.4948 31.9339C51.6625 33.2051 52.1914 35.0856 51.7151 36.946C51.396 38.1962 50.7967 38.9049 50.392 39.4225C49.8247 38.8529 49.0989 38.442 48.2873 38.2605V34.1325H46.411V38.2605C45.5996 38.442 44.8737 38.8527 44.3066 39.4222L44.0291 39.0674C42.5148 37.1332 42.4251 34.5376 43.6815 32.6076L42.109 31.5841C41.2846 32.8507 40.8413 34.4106 40.95 36.053C40.1071 35.9972 39.2605 36.085 38.449 36.3174C36.3713 36.9134 35.7369 37.7641 32.0306 41.1714L28.5002 37.9254C27.1302 36.667 25.1916 35.9155 23.1116 36.053C23.2479 33.9957 22.5136 32.052 21.239 30.6641L16.7121 25.7402L12.7869 30.01L14.1681 31.2797L16.7121 28.5125L19.8575 31.9337C21.6164 33.8485 21.7502 36.8734 20.032 39.0679L19.7547 39.4225C19.1875 38.8529 18.4616 38.442 17.65 38.2605V34.1325H15.7738V38.2605C14.9624 38.442 14.2365 38.8527 13.6694 39.4222L13.3919 39.0674C11.8819 37.1389 11.784 34.5435 13.0442 32.6076L11.4718 31.5841C10.6474 32.8507 10.204 34.4106 10.3127 36.053C8.23962 35.9159 6.29562 36.6634 4.92387 37.9257L0 42.4525C5.31763 47.3412 5.728 47.9897 7.81213 48.5876C8.60738 48.8155 9.45062 48.9096 10.3126 48.8522C10.1774 50.9017 10.907 52.8492 12.1854 54.2407L16.7122 59.1645C21.5117 53.944 22.2458 53.4484 22.8472 51.3516C23.0798 50.5412 23.1674 49.695 23.1117 48.8521C23.9653 48.9089 24.8088 48.8174 25.611 48.5875C27.6939 47.9907 28.3469 47.1202 32.031 43.7337L35.5615 46.9795C36.9261 48.2332 38.8652 48.9909 40.9499 48.8521C40.8145 50.9037 41.5456 52.8505 42.8226 54.2406L47.3495 59.1644L51.8771 54.2396C53.118 52.8861 53.8879 50.9559 53.749 48.852C55.8186 48.9895 57.7588 48.2434 59.1376 46.9791C63.9339 42.5702 63.0976 43.358 64 42.4447C63.1307 41.5826 63.9646 42.3637 59.1375 37.9255ZM47.3493 40.0322C48.6836 40.0322 49.7692 41.1179 49.7692 42.4522C49.7692 43.7866 48.6836 44.8722 47.3493 44.8722C46.0149 44.8722 44.9294 43.7866 44.9294 42.4522C44.9294 41.1177 46.0149 40.0322 47.3493 40.0322ZM16.712 40.0322C18.0464 40.0322 19.132 41.1179 19.132 42.4522C19.132 43.7866 18.0464 44.8722 16.712 44.8722C15.3776 44.8722 14.2921 43.7866 14.2921 42.4522C14.2921 41.1177 15.3776 40.0322 16.712 40.0322ZM10.7022 46.9192C9.90787 47.0474 9.09688 47.0041 8.32913 46.7841C6.78138 46.34 6.41475 45.8012 2.77225 42.4525L6.19413 39.3066C7.32363 38.267 8.97375 37.7077 10.7024 37.9851C11.1823 39.3941 11.8355 40.1227 12.6245 41.1316C12.584 41.2567 12.5494 41.3842 12.5204 41.514H8.39237V43.3902H12.5204C12.5494 43.5201 12.5841 43.6479 12.6246 43.7731C11.8309 44.7881 11.1817 45.5122 10.7022 46.9192ZM19.8577 52.971L16.7121 56.3925L13.5667 52.9712C12.4127 51.7152 11.8656 49.8359 12.3464 47.9582C12.6685 46.6976 13.2999 45.9554 13.6696 45.4825C14.2368 46.0519 14.9625 46.4625 15.7738 46.644V50.772H17.65V46.644C18.4614 46.4625 19.1873 46.0517 19.7544 45.4822L20.0324 45.8377C21.7671 48.0529 21.597 51.0741 19.8577 52.971ZM25.0944 46.784C24.327 47.0039 23.5162 47.0472 22.7221 46.9191C22.2425 45.5121 21.5906 44.7844 20.7996 43.7727C20.8401 43.6476 20.8748 43.52 20.9037 43.3901H25.0317V41.5139H20.9037C20.8748 41.3842 20.8403 41.2567 20.7997 41.1317C21.5917 40.119 22.2422 39.3935 22.7221 37.985C24.4327 37.7107 26.0857 38.2549 27.2307 39.3067L30.6449 42.4452L30.6371 42.4524L30.6449 42.4595C27.1038 45.7149 26.6707 46.3324 25.0944 46.784ZM41.3395 46.9192C39.6259 47.1957 37.9733 46.6475 36.831 45.5981L33.4095 42.4525L36.8314 39.3066C37.9609 38.267 39.611 37.7077 41.3396 37.9851C41.8136 39.377 42.445 40.0874 43.2617 41.1316C43.2212 41.2567 43.1866 41.3842 43.1576 41.514H39.0296V43.3902H43.1576C43.1866 43.5201 43.2214 43.6479 43.2619 43.7731C42.4681 44.7881 41.819 45.5124 41.3395 46.9192ZM50.495 52.971L47.3494 56.3925L44.204 52.9712C42.4618 51.0744 42.2969 48.0499 44.0295 45.8371L44.3069 45.4824C44.874 46.0517 45.5998 46.4624 46.411 46.6439V50.7719H48.2873V46.6439C49.0986 46.4624 49.8245 46.0516 50.3916 45.4821C50.7327 45.9184 51.3866 46.6732 51.7151 47.9584C52.1933 49.8254 51.6569 51.7037 50.495 52.971ZM57.8689 45.5972C56.7581 46.6156 55.1193 47.203 53.3594 46.9191C52.8797 45.5121 52.2279 44.7844 51.4369 43.7727C51.4774 43.6476 51.512 43.52 51.541 43.3901H55.669V41.5139H51.541C51.512 41.3842 51.4775 41.2567 51.437 41.1317C52.229 40.119 52.8796 39.3935 53.3594 37.985C55.0696 37.7107 56.7228 38.2549 57.868 39.3067L61.2899 42.4524L57.8689 45.5972Z" fill="#511824"/>
<path d="M43.0419 19.647L44.5166 18.4874L45.6578 19.9389L44.1831 21.0984L43.0419 19.647Z" fill="#FFAAAA"/>
<path d="M40.084 21.9153L41.5587 20.7558L42.7182 22.2305L41.2435 23.39L40.084 21.9153Z" fill="#FFAAAA"/>
</svg>
