<svg width="28" height="65" viewBox="0 0 28 65" fill="none" xmlns="http://www.w3.org/2000/svg">
<path d="M24.3177 44.6181C21.7923 44.8166 19.4861 46.0659 17.9332 48.1544V39.3713L22.1329 36.6484L21.1129 35.0752L17.9332 37.1367V32.7993H18.7357C21.3736 32.7993 23.8193 31.6061 25.4461 29.5254L23.9689 28.3706C22.7001 29.9936 20.7926 30.9244 18.7357 30.9244C11.3372 30.9244 11.1031 30.9649 10.2894 30.8127V19.9281C10.2894 16.2654 13.2521 13.2893 16.9282 13.2893H25.3744V23.5806H27.2494V11.4143H24.8182V6.23932H19.9799C18.8548 4.35782 17.7177 3.17182 16.4167 1.81682C16.0158 1.39919 15.9916 1.37332 15.6238 0.986816H14.6173C12.8819 2.81044 11.5203 4.11107 10.2146 6.31819C9.52606 6.21519 9.55356 6.23932 5.42306 6.23932V11.4143H2.99181V24.2856C2.99181 27.7926 5.18931 30.9592 8.41431 32.2192V32.2502C10.0349 32.7311 10.2847 32.7993 12.3081 32.7993V41.4624C11.9268 40.8798 11.4609 40.2991 10.8862 39.7243C7.69306 36.5312 4.48931 36.6573 0.475189 36.3419C0.733064 39.6618 0.702564 42.0742 2.16206 44.5814L3.78256 43.6381C2.78469 41.9239 2.62894 40.1953 2.50519 38.3736C4.95719 38.5421 7.28044 38.7701 9.56044 41.0501C11.8381 43.3277 12.0682 45.6487 12.2348 48.0981C10.5761 47.9677 7.74631 47.9964 5.18019 45.4303C5.06931 45.3194 4.96069 45.2057 4.85731 45.0922L3.47119 46.3549C3.59406 46.4898 3.72306 46.6248 3.85431 46.7562C6.91107 49.8129 10.2574 49.8234 12.3079 49.9847V56.1746L9.12819 54.1131L8.10819 55.6863L12.3079 58.4092V64.9868H17.9329V55.7732C19.5657 55.6607 21.3949 55.4944 23.2011 54.3446L22.1939 52.7629C20.8662 53.6083 19.5111 53.7779 18.0891 53.8823C17.8373 49.9841 20.7487 46.7793 24.4642 46.4873L25.4934 46.4064C25.3636 48.2307 25.1402 49.9639 23.5276 51.6538L24.8841 52.9483C27.3531 50.3612 27.2533 47.8511 27.5239 44.3662L24.3177 44.6181ZM22.9433 11.4143C16.5617 11.4143 15.7604 11.2676 13.9311 11.9561C14.4378 9.74544 16.4651 8.11432 18.7908 8.11432H22.9433V11.4143ZM15.1207 3.17407C16.1293 4.22469 16.9828 5.11994 17.8033 6.31432C16.3678 6.52482 15.0298 7.18632 13.9921 8.19844C13.4316 7.65032 12.7813 7.20157 12.0722 6.87282C13.0108 5.38282 14.0034 4.33757 15.1207 3.17407ZM7.29831 8.11432C9.07219 8.11432 11.0769 7.82219 12.8313 9.69194C12.1836 10.8132 11.9954 11.8734 11.9426 12.6378C10.4018 11.7086 8.92406 11.4143 7.29831 11.4143V8.11432ZM4.86706 24.2856V13.2893C7.53831 13.2893 8.87119 13.0911 10.7221 14.1011C9.23894 15.6791 8.41456 17.7333 8.41456 19.9281V30.1596C6.27644 29.0271 4.86706 26.7658 4.86706 24.2856ZM14.1833 63.1118V32.7993H16.0583V63.1118H14.1833Z" fill="#511824"/>
<path d="M24.841 26.8979L26.5644 27.6365C26.841 26.991 27.0366 26.3118 27.1459 25.6177L25.2937 25.3263C25.2085 25.8667 25.0562 26.3954 24.841 26.8979Z" fill="#FFAAAA"/>
<path d="M21.4916 15.2307H23.3666V17.0762H21.4916V15.2307Z" fill="#FFAAAA"/>
<path d="M17.7666 15.1847H19.6416V17.0597H17.7666V15.1847Z" fill="#FFAAAA"/>
</svg>
